<svg xmlns="http://www.w3.org/2000/svg" xmlns:xlink="http://www.w3.org/1999/xlink" contentStyleType="text/css" data-diagram-type="SEQUENCE" height="1128px" preserveAspectRatio="none" style="width:1321px;height:1128px;background:#1B1B1B;" version="1.1" viewBox="0 0 1321 1128" width="1321px" zoomAndPan="magnify"><defs/><g><rect fill="#1B1B1B" height="1128" style="stroke:none;stroke-width:1;" width="1321" x="0" y="0"/><rect fill="none" height="831.3906" style="stroke:#FFFFFF;stroke-width:1.5;" width="1294.5215" x="10" y="199.6953"/><g><title>Usuario</title><rect fill="#000000" fill-opacity="0.00000" height="966.7891" width="8" x="45.6021" y="81.2969"/><line style="stroke:#E7E7E7;stroke-width:0.5;stroke-dasharray:5.0,5.0;" x1="49" x2="49" y1="81.2969" y2="1048.0859"/></g><g><title>Frontend</title><rect fill="#000000" fill-opacity="0.00000" height="966.7891" width="8" x="278.6494" y="81.2969"/><line style="stroke:#E7E7E7;stroke-width:0.5;stroke-dasharray:5.0,5.0;" x1="282.0947" x2="282.0947" y1="81.2969" y2="1048.0859"/></g><g><title>UserService</title><rect fill="#000000" fill-opacity="0.00000" height="966.7891" width="8" x="455.9072" y="81.2969"/><line style="stroke:#E7E7E7;stroke-width:0.5;stroke-dasharray:5.0,5.0;" x1="459.0815" x2="459.0815" y1="81.2969" y2="1048.0859"/></g><g><title>ArchitectureService</title><rect fill="#000000" fill-opacity="0.00000" height="966.7891" width="8" x="590.7656" y="81.2969"/><line style="stroke:#E7E7E7;stroke-width:0.5;stroke-dasharray:5.0,5.0;" x1="594.7329" x2="594.7329" y1="81.2969" y2="1048.0859"/></g><g><title>ArchitectureFactory</title><rect fill="#000000" fill-opacity="0.00000" height="966.7891" width="8" x="793.0015" y="81.2969"/><line style="stroke:#E7E7E7;stroke-width:0.5;stroke-dasharray:5.0,5.0;" x1="796.627" x2="796.627" y1="81.2969" y2="1048.0859"/></g><g><title>FileCompressor</title><rect fill="#000000" fill-opacity="0.00000" height="966.7891" width="8" x="940.6704" y="81.2969"/><line style="stroke:#E7E7E7;stroke-width:0.5;stroke-dasharray:5.0,5.0;" x1="944.376" x2="944.376" y1="81.2969" y2="1048.0859"/></g><g><title>ArchitectureRepository</title><rect fill="#000000" fill-opacity="0.00000" height="966.7891" width="8" x="1099.6631" y="81.2969"/><line style="stroke:#E7E7E7;stroke-width:0.5;stroke-dasharray:5.0,5.0;" x1="1102.9648" x2="1102.9648" y1="81.2969" y2="1048.0859"/></g><g><title>AnyFactory</title><rect fill="#000000" fill-opacity="0.00000" height="966.7891" width="8" x="1243.9414" y="81.2969"/><line style="stroke:#E7E7E7;stroke-width:0.5;stroke-dasharray:5.0,5.0;" x1="1247.3613" x2="1247.3613" y1="81.2969" y2="1048.0859"/></g><g class="participant participant-head" data-participant="Usuario"><text fill="#FFFFFF" font-family="sans-serif" font-size="14" lengthAdjust="spacing" textLength="53.2041" x="20" y="77.9951">Usuario</text><ellipse cx="49.6021" cy="13.5" fill="#222222" rx="8" ry="8" style="stroke:#E7E7E7;stroke-width:0.5;"/><path d="M49.6021,21.5 L49.6021,48.5 M36.6021,29.5 L62.6021,29.5 M49.6021,48.5 L36.6021,63.5 M49.6021,48.5 L62.6021,63.5" fill="none" style="stroke:#E7E7E7;stroke-width:0.5;"/></g><g class="participant participant-tail" data-participant="Usuario"><text fill="#FFFFFF" font-family="sans-serif" font-size="14" lengthAdjust="spacing" textLength="53.2041" x="20" y="1060.0811">Usuario</text><ellipse cx="49.6021" cy="1071.8828" fill="#222222" rx="8" ry="8" style="stroke:#E7E7E7;stroke-width:0.5;"/><path d="M49.6021,1079.8828 L49.6021,1106.8828 M36.6021,1087.8828 L62.6021,1087.8828 M49.6021,1106.8828 L36.6021,1121.8828 M49.6021,1106.8828 L62.6021,1121.8828" fill="none" style="stroke:#E7E7E7;stroke-width:0.5;"/></g><g class="participant participant-head" data-participant="Frontend"><rect fill="#222222" height="30.2969" rx="2.5" ry="2.5" style="stroke:#E7E7E7;stroke-width:0.5;" width="77.1094" x="244.0947" y="50"/><text fill="#FFFFFF" font-family="sans-serif" font-size="14" lengthAdjust="spacing" textLength="63.1094" x="251.0947" y="69.9951">Frontend</text></g><g class="participant participant-tail" data-participant="Frontend"><rect fill="#222222" height="30.2969" rx="2.5" ry="2.5" style="stroke:#E7E7E7;stroke-width:0.5;" width="77.1094" x="244.0947" y="1047.0859"/><text fill="#FFFFFF" font-family="sans-serif" font-size="14" lengthAdjust="spacing" textLength="63.1094" x="251.0947" y="1067.0811">Frontend</text></g><g class="participant participant-head" data-participant="UserSvc"><rect fill="#222222" height="30.2969" rx="2.5" ry="2.5" style="stroke:#E7E7E7;stroke-width:0.5;" width="97.6514" x="411.0815" y="50"/><text fill="#FFFFFF" font-family="sans-serif" font-size="14" lengthAdjust="spacing" textLength="83.6514" x="418.0815" y="69.9951">UserService</text></g><g class="participant participant-tail" data-participant="UserSvc"><rect fill="#222222" height="30.2969" rx="2.5" ry="2.5" style="stroke:#E7E7E7;stroke-width:0.5;" width="97.6514" x="411.0815" y="1047.0859"/><text fill="#FFFFFF" font-family="sans-serif" font-size="14" lengthAdjust="spacing" textLength="83.6514" x="418.0815" y="1067.0811">UserService</text></g><g class="participant participant-head" data-participant="Service"><rect fill="#222222" height="30.2969" rx="2.5" ry="2.5" style="stroke:#E7E7E7;stroke-width:0.5;" width="152.0654" x="518.7329" y="50"/><text fill="#FFFFFF" font-family="sans-serif" font-size="14" lengthAdjust="spacing" textLength="138.0654" x="525.7329" y="69.9951">ArchitectureService</text></g><g class="participant participant-tail" data-participant="Service"><rect fill="#222222" height="30.2969" rx="2.5" ry="2.5" style="stroke:#E7E7E7;stroke-width:0.5;" width="152.0654" x="518.7329" y="1047.0859"/><text fill="#FFFFFF" font-family="sans-serif" font-size="14" lengthAdjust="spacing" textLength="138.0654" x="525.7329" y="1067.0811">ArchitectureService</text></g><g class="participant participant-head" data-participant="Factory"><rect fill="#222222" height="30.2969" rx="2.5" ry="2.5" style="stroke:#E7E7E7;stroke-width:0.5;" width="152.749" x="720.627" y="50"/><text fill="#FFFFFF" font-family="sans-serif" font-size="14" lengthAdjust="spacing" textLength="138.749" x="727.627" y="69.9951">ArchitectureFactory</text></g><g class="participant participant-tail" data-participant="Factory"><rect fill="#222222" height="30.2969" rx="2.5" ry="2.5" style="stroke:#E7E7E7;stroke-width:0.5;" width="152.749" x="720.627" y="1047.0859"/><text fill="#FFFFFF" font-family="sans-serif" font-size="14" lengthAdjust="spacing" textLength="138.749" x="727.627" y="1067.0811">ArchitectureFactory</text></g><g class="participant participant-head" data-participant="Compressor"><rect fill="#222222" height="30.2969" rx="2.5" ry="2.5" style="stroke:#E7E7E7;stroke-width:0.5;" width="122.5889" x="883.376" y="50"/><text fill="#FFFFFF" font-family="sans-serif" font-size="14" lengthAdjust="spacing" textLength="108.5889" x="890.376" y="69.9951">FileCompressor</text></g><g class="participant participant-tail" data-participant="Compressor"><rect fill="#222222" height="30.2969" rx="2.5" ry="2.5" style="stroke:#E7E7E7;stroke-width:0.5;" width="122.5889" x="883.376" y="1047.0859"/><text fill="#FFFFFF" font-family="sans-serif" font-size="14" lengthAdjust="spacing" textLength="108.5889" x="890.376" y="1067.0811">FileCompressor</text></g><g class="participant participant-head" data-participant="Repo"><rect fill="#222222" height="30.2969" rx="2.5" ry="2.5" style="stroke:#E7E7E7;stroke-width:0.5;" width="175.3965" x="1015.9648" y="50"/><text fill="#FFFFFF" font-family="sans-serif" font-size="14" lengthAdjust="spacing" textLength="161.3965" x="1022.9648" y="69.9951">ArchitectureRepository</text></g><g class="participant participant-tail" data-participant="Repo"><rect fill="#222222" height="30.2969" rx="2.5" ry="2.5" style="stroke:#E7E7E7;stroke-width:0.5;" width="175.3965" x="1015.9648" y="1047.0859"/><text fill="#FFFFFF" font-family="sans-serif" font-size="14" lengthAdjust="spacing" textLength="161.3965" x="1022.9648" y="1067.0811">ArchitectureRepository</text></g><g class="participant participant-head" data-participant="AnyFactory"><rect fill="#222222" height="30.2969" rx="2.5" ry="2.5" style="stroke:#E7E7E7;stroke-width:0.5;" width="93.1602" x="1201.3613" y="50"/><text fill="#FFFFFF" font-family="sans-serif" font-size="14" lengthAdjust="spacing" textLength="79.1602" x="1208.3613" y="69.9951">AnyFactory</text></g><g class="participant participant-tail" data-participant="AnyFactory"><rect fill="#222222" height="30.2969" rx="2.5" ry="2.5" style="stroke:#E7E7E7;stroke-width:0.5;" width="93.1602" x="1201.3613" y="1047.0859"/><text fill="#FFFFFF" font-family="sans-serif" font-size="14" lengthAdjust="spacing" textLength="79.1602" x="1208.3613" y="1067.0811">AnyFactory</text></g><rect fill="#111111" height="3" style="stroke:#111111;stroke-width:1;" width="1314.5215" x="0" y="111.8633"/><line style="stroke:#FFFFFF;stroke-width:1;" x1="0" x2="1314.5215" y1="111.8633" y2="111.8633"/><line style="stroke:#FFFFFF;stroke-width:1;" x1="0" x2="1314.5215" y1="114.8633" y2="114.8633"/><rect fill="#111111" height="23.1328" style="stroke:#FFFFFF;stroke-width:2;" width="118.0952" x="598.2131" y="101.2969"/><text fill="#FFFFFF" font-family="sans-serif" font-size="13" font-weight="bold" lengthAdjust="spacing" textLength="99.5693" x="604.2131" y="117.3638">Inicio de flujo</text><g class="message" data-participant-1="Usuario" data-participant-2="Frontend"><polygon fill="#E7E7E7" points="270.6494,151.5625,280.6494,155.5625,270.6494,159.5625,274.6494,155.5625" style="stroke:#E7E7E7;stroke-width:1;"/><line style="stroke:#E7E7E7;stroke-width:1;" x1="49.6021" x2="276.6494" y1="155.5625" y2="155.5625"/><text fill="#FFFFFF" font-family="sans-serif" font-size="13" lengthAdjust="spacing" textLength="154.3623" x="56.6021" y="150.4966">Selecciona arquitectura</text></g><g class="message" data-participant-1="Frontend" data-participant-2="UserSvc"><polygon fill="#E7E7E7" points="447.9072,180.6953,457.9072,184.6953,447.9072,188.6953,451.9072,184.6953" style="stroke:#E7E7E7;stroke-width:1;"/><line style="stroke:#E7E7E7;stroke-width:1;" x1="282.6494" x2="453.9072" y1="184.6953" y2="184.6953"/><text fill="#FFFFFF" font-family="sans-serif" font-size="13" lengthAdjust="spacing" textLength="153.2578" x="289.6494" y="179.6294">obtenerUsuarioSesion()</text></g><path d="M10,199.6953 L74.4429,199.6953 L74.4429,206.8281 L64.4429,216.8281 L10,216.8281 L10,199.6953" fill="#555555" style="stroke:#FFFFFF;stroke-width:1.5;"/><rect fill="none" height="831.3906" style="stroke:#FFFFFF;stroke-width:1.5;" width="1294.5215" x="10" y="199.6953"/><text fill="#FFFFFF" font-family="sans-serif" font-size="13" font-weight="bold" lengthAdjust="spacing" textLength="19.4429" x="25" y="212.7622">alt</text><text fill="#FFFFFF" font-family="sans-serif" font-size="11" font-weight="bold" lengthAdjust="spacing" textLength="118.7173" x="89.4429" y="211.9058">[Usuario logueado]</text><g class="message" data-participant-1="UserSvc" data-participant-2="Frontend"><polygon fill="#E7E7E7" points="293.6494,233.9609,283.6494,237.9609,293.6494,241.9609,289.6494,237.9609" style="stroke:#E7E7E7;stroke-width:1;"/><line style="stroke:#E7E7E7;stroke-width:1;stroke-dasharray:2.0,2.0;" x1="287.6494" x2="458.9072" y1="237.9609" y2="237.9609"/><text fill="#FFFFFF" font-family="sans-serif" font-size="13" lengthAdjust="spacing" textLength="51.6382" x="299.6494" y="232.895">User(id)</text></g><rect fill="#111111" height="3" style="stroke:#111111;stroke-width:1;" width="1314.5215" x="0" y="266.5273"/><line style="stroke:#FFFFFF;stroke-width:1;" x1="0" x2="1314.5215" y1="266.5273" y2="266.5273"/><line style="stroke:#FFFFFF;stroke-width:1;" x1="0" x2="1314.5215" y1="269.5273" y2="269.5273"/><rect fill="#111111" height="23.1328" style="stroke:#FFFFFF;stroke-width:2;" width="119.1743" x="597.6736" y="255.9609"/><text fill="#FFFFFF" font-family="sans-serif" font-size="13" font-weight="bold" lengthAdjust="spacing" textLength="100.6484" x="603.6736" y="272.0278">Flujo editable</text><g class="message" data-participant-1="Usuario" data-participant-2="Frontend"><polygon fill="#E7E7E7" points="270.6494,306.2266,280.6494,310.2266,270.6494,314.2266,274.6494,310.2266" style="stroke:#E7E7E7;stroke-width:1;"/><line style="stroke:#E7E7E7;stroke-width:1;" x1="49.6021" x2="276.6494" y1="310.2266" y2="310.2266"/><text fill="#FFFFFF" font-family="sans-serif" font-size="13" lengthAdjust="spacing" textLength="209.0474" x="56.6021" y="305.1606">Agrega carpetas personalizadas</text></g><g class="message" data-participant-1="Frontend" data-participant-2="Service"><polygon fill="#E7E7E7" points="582.7656,335.3594,592.7656,339.3594,582.7656,343.3594,586.7656,339.3594" style="stroke:#E7E7E7;stroke-width:1;"/><line style="stroke:#E7E7E7;stroke-width:1;" x1="282.6494" x2="588.7656" y1="339.3594" y2="339.3594"/><text fill="#FFFFFF" font-family="sans-serif" font-size="13" lengthAdjust="spacing" textLength="268.4995" x="289.6494" y="334.2935">customizeTemplate(type, folders, userId)</text></g><g class="message" data-participant-1="Service" data-participant-2="Repo"><polygon fill="#E7E7E7" points="1091.6631,364.4922,1101.6631,368.4922,1091.6631,372.4922,1095.6631,368.4922" style="stroke:#E7E7E7;stroke-width:1;"/><line style="stroke:#E7E7E7;stroke-width:1;" x1="594.7656" x2="1097.6631" y1="368.4922" y2="368.4922"/><text fill="#FFFFFF" font-family="sans-serif" font-size="13" lengthAdjust="spacing" textLength="99.2583" x="601.7656" y="363.4263">save(template)</text></g><g class="message" data-participant-1="Repo" data-participant-2="Service"><polygon fill="#E7E7E7" points="605.7656,393.625,595.7656,397.625,605.7656,401.625,601.7656,397.625" style="stroke:#E7E7E7;stroke-width:1;"/><line style="stroke:#E7E7E7;stroke-width:1;stroke-dasharray:2.0,2.0;" x1="599.7656" x2="1102.6631" y1="397.625" y2="397.625"/><text fill="#FFFFFF" font-family="sans-serif" font-size="13" lengthAdjust="spacing" textLength="18.7573" x="611.7656" y="392.5591">OK</text></g><rect fill="#111111" height="3" style="stroke:#111111;stroke-width:1;" width="1314.5215" x="0" y="426.1914"/><line style="stroke:#FFFFFF;stroke-width:1;" x1="0" x2="1314.5215" y1="426.1914" y2="426.1914"/><line style="stroke:#FFFFFF;stroke-width:1;" x1="0" x2="1314.5215" y1="429.1914" y2="429.1914"/><rect fill="#111111" height="23.1328" style="stroke:#FFFFFF;stroke-width:2;" width="213.2402" x="550.6406" y="415.625"/><text fill="#FFFFFF" font-family="sans-serif" font-size="13" font-weight="bold" lengthAdjust="spacing" textLength="194.7144" x="556.6406" y="431.6919">Generar ZIP personalizado</text><g class="message" data-participant-1="Frontend" data-participant-2="Service"><polygon fill="#E7E7E7" points="582.7656,465.8906,592.7656,469.8906,582.7656,473.8906,586.7656,469.8906" style="stroke:#E7E7E7;stroke-width:1;"/><line style="stroke:#E7E7E7;stroke-width:1;" x1="282.6494" x2="588.7656" y1="469.8906" y2="469.8906"/><text fill="#FFFFFF" font-family="sans-serif" font-size="13" lengthAdjust="spacing" textLength="146.7832" x="289.6494" y="464.8247">generate(type, userId)</text></g><g class="message" data-participant-1="Service" data-participant-2="Factory"><polygon fill="#E7E7E7" points="785.0015,495.0234,795.0015,499.0234,785.0015,503.0234,789.0015,499.0234" style="stroke:#E7E7E7;stroke-width:1;"/><line style="stroke:#E7E7E7;stroke-width:1;" x1="594.7656" x2="791.0015" y1="499.0234" y2="499.0234"/><text fill="#FFFFFF" font-family="sans-serif" font-size="13" lengthAdjust="spacing" textLength="178.2358" x="601.7656" y="493.9575">generateArchitecture(type)</text></g><g class="message" data-participant-1="Factory" data-participant-2="AnyFactory"><polygon fill="#E7E7E7" points="1235.9414,524.1563,1245.9414,528.1563,1235.9414,532.1563,1239.9414,528.1563" style="stroke:#E7E7E7;stroke-width:1;"/><line style="stroke:#E7E7E7;stroke-width:1;" x1="797.0015" x2="1241.9414" y1="528.1563" y2="528.1563"/><text fill="#FFFFFF" font-family="sans-serif" font-size="13" lengthAdjust="spacing" textLength="69.0371" x="804.0015" y="523.0903">generate()</text></g><g class="message" data-participant-1="AnyFactory" data-participant-2="Factory"><polygon fill="#E7E7E7" points="808.0015,553.2891,798.0015,557.2891,808.0015,561.2891,804.0015,557.2891" style="stroke:#E7E7E7;stroke-width:1;"/><line style="stroke:#E7E7E7;stroke-width:1;stroke-dasharray:2.0,2.0;" x1="802.0015" x2="1246.9414" y1="557.2891" y2="557.2891"/><text fill="#FFFFFF" font-family="sans-serif" font-size="13" lengthAdjust="spacing" textLength="72.4712" x="814.0015" y="552.2231">ZipContent</text></g><g class="message" data-participant-1="Factory" data-participant-2="Service"><polygon fill="#E7E7E7" points="605.7656,582.4219,595.7656,586.4219,605.7656,590.4219,601.7656,586.4219" style="stroke:#E7E7E7;stroke-width:1;"/><line style="stroke:#E7E7E7;stroke-width:1;stroke-dasharray:2.0,2.0;" x1="599.7656" x2="796.0015" y1="586.4219" y2="586.4219"/><text fill="#FFFFFF" font-family="sans-serif" font-size="13" lengthAdjust="spacing" textLength="72.4712" x="611.7656" y="581.356">ZipContent</text></g><g class="message" data-participant-1="Service" data-participant-2="Compressor"><polygon fill="#E7E7E7" points="932.6704,611.5547,942.6704,615.5547,932.6704,619.5547,936.6704,615.5547" style="stroke:#E7E7E7;stroke-width:1;"/><line style="stroke:#E7E7E7;stroke-width:1;" x1="594.7656" x2="938.6704" y1="615.5547" y2="615.5547"/><text fill="#FFFFFF" font-family="sans-serif" font-size="13" lengthAdjust="spacing" textLength="131.7329" x="601.7656" y="610.4888">compress(template)</text></g><g class="message" data-participant-1="Compressor" data-participant-2="Service"><polygon fill="#E7E7E7" points="605.7656,640.6875,595.7656,644.6875,605.7656,648.6875,601.7656,644.6875" style="stroke:#E7E7E7;stroke-width:1;"/><line style="stroke:#E7E7E7;stroke-width:1;stroke-dasharray:2.0,2.0;" x1="599.7656" x2="943.6704" y1="644.6875" y2="644.6875"/><text fill="#FFFFFF" font-family="sans-serif" font-size="13" lengthAdjust="spacing" textLength="43.4688" x="611.7656" y="639.6216">ZipFile</text></g><g class="message" data-participant-1="Service" data-participant-2="Frontend"><polygon fill="#E7E7E7" points="293.6494,669.8203,283.6494,673.8203,293.6494,677.8203,289.6494,673.8203" style="stroke:#E7E7E7;stroke-width:1;"/><line style="stroke:#E7E7E7;stroke-width:1;stroke-dasharray:2.0,2.0;" x1="287.6494" x2="593.7656" y1="673.8203" y2="673.8203"/><text fill="#FFFFFF" font-family="sans-serif" font-size="13" lengthAdjust="spacing" textLength="43.4688" x="299.6494" y="668.7544">ZipFile</text></g><g class="message" data-participant-1="Frontend" data-participant-2="Usuario"><polygon fill="#E7E7E7" points="60.6021,698.9531,50.6021,702.9531,60.6021,706.9531,56.6021,702.9531" style="stroke:#E7E7E7;stroke-width:1;"/><line style="stroke:#E7E7E7;stroke-width:1;" x1="54.6021" x2="281.6494" y1="702.9531" y2="702.9531"/><text fill="#FFFFFF" font-family="sans-serif" font-size="13" lengthAdjust="spacing" textLength="181.0479" x="66.6021" y="697.8872">Descarga ZIP personalizado</text></g><line style="stroke:#FFFFFF;stroke-width:1;stroke-dasharray:2.0,2.0;" x1="10" x2="1304.5215" y1="711.9531" y2="711.9531"/><text fill="#FFFFFF" font-family="sans-serif" font-size="11" font-weight="bold" lengthAdjust="spacing" textLength="137.9351" x="15" y="722.1636">[Usuario no logueado]</text><rect fill="#111111" height="3" style="stroke:#111111;stroke-width:1;" width="1314.5215" x="0" y="746.3242"/><line style="stroke:#FFFFFF;stroke-width:1;" x1="0" x2="1314.5215" y1="746.3242" y2="746.3242"/><line style="stroke:#FFFFFF;stroke-width:1;" x1="0" x2="1314.5215" y1="749.3242" y2="749.3242"/><rect fill="#111111" height="23.1328" style="stroke:#FFFFFF;stroke-width:2;" width="195.1431" x="559.6892" y="735.7578"/><text fill="#FFFFFF" font-family="sans-serif" font-size="13" font-weight="bold" lengthAdjust="spacing" textLength="176.6172" x="565.6892" y="751.8247">Generar ZIP por defecto</text><g class="message" data-participant-1="Frontend" data-participant-2="Service"><polygon fill="#E7E7E7" points="582.7656,786.0234,592.7656,790.0234,582.7656,794.0234,586.7656,790.0234" style="stroke:#E7E7E7;stroke-width:1;"/><line style="stroke:#E7E7E7;stroke-width:1;" x1="282.6494" x2="588.7656" y1="790.0234" y2="790.0234"/><text fill="#FFFFFF" font-family="sans-serif" font-size="13" lengthAdjust="spacing" textLength="130.0444" x="289.6494" y="784.9575">generate(type, null)</text></g><g class="message" data-participant-1="Service" data-participant-2="Factory"><polygon fill="#E7E7E7" points="785.0015,815.1563,795.0015,819.1563,785.0015,823.1563,789.0015,819.1563" style="stroke:#E7E7E7;stroke-width:1;"/><line style="stroke:#E7E7E7;stroke-width:1;" x1="594.7656" x2="791.0015" y1="819.1563" y2="819.1563"/><text fill="#FFFFFF" font-family="sans-serif" font-size="13" lengthAdjust="spacing" textLength="178.2358" x="601.7656" y="814.0903">generateArchitecture(type)</text></g><g class="message" data-participant-1="Factory" data-participant-2="AnyFactory"><polygon fill="#E7E7E7" points="1235.9414,844.2891,1245.9414,848.2891,1235.9414,852.2891,1239.9414,848.2891" style="stroke:#E7E7E7;stroke-width:1;"/><line style="stroke:#E7E7E7;stroke-width:1;" x1="797.0015" x2="1241.9414" y1="848.2891" y2="848.2891"/><text fill="#FFFFFF" font-family="sans-serif" font-size="13" lengthAdjust="spacing" textLength="69.0371" x="804.0015" y="843.2231">generate()</text></g><g class="message" data-participant-1="AnyFactory" data-participant-2="Factory"><polygon fill="#E7E7E7" points="808.0015,873.4219,798.0015,877.4219,808.0015,881.4219,804.0015,877.4219" style="stroke:#E7E7E7;stroke-width:1;"/><line style="stroke:#E7E7E7;stroke-width:1;stroke-dasharray:2.0,2.0;" x1="802.0015" x2="1246.9414" y1="877.4219" y2="877.4219"/><text fill="#FFFFFF" font-family="sans-serif" font-size="13" lengthAdjust="spacing" textLength="72.4712" x="814.0015" y="872.356">ZipContent</text></g><g class="message" data-participant-1="Factory" data-participant-2="Service"><polygon fill="#E7E7E7" points="605.7656,902.5547,595.7656,906.5547,605.7656,910.5547,601.7656,906.5547" style="stroke:#E7E7E7;stroke-width:1;"/><line style="stroke:#E7E7E7;stroke-width:1;stroke-dasharray:2.0,2.0;" x1="599.7656" x2="796.0015" y1="906.5547" y2="906.5547"/><text fill="#FFFFFF" font-family="sans-serif" font-size="13" lengthAdjust="spacing" textLength="72.4712" x="611.7656" y="901.4888">ZipContent</text></g><g class="message" data-participant-1="Service" data-participant-2="Compressor"><polygon fill="#E7E7E7" points="932.6704,931.6875,942.6704,935.6875,932.6704,939.6875,936.6704,935.6875" style="stroke:#E7E7E7;stroke-width:1;"/><line style="stroke:#E7E7E7;stroke-width:1;" x1="594.7656" x2="938.6704" y1="935.6875" y2="935.6875"/><text fill="#FFFFFF" font-family="sans-serif" font-size="13" lengthAdjust="spacing" textLength="131.7329" x="601.7656" y="930.6216">compress(template)</text></g><g class="message" data-participant-1="Compressor" data-participant-2="Service"><polygon fill="#E7E7E7" points="605.7656,960.8203,595.7656,964.8203,605.7656,968.8203,601.7656,964.8203" style="stroke:#E7E7E7;stroke-width:1;"/><line style="stroke:#E7E7E7;stroke-width:1;stroke-dasharray:2.0,2.0;" x1="599.7656" x2="943.6704" y1="964.8203" y2="964.8203"/><text fill="#FFFFFF" font-family="sans-serif" font-size="13" lengthAdjust="spacing" textLength="43.4688" x="611.7656" y="959.7544">ZipFile</text></g><g class="message" data-participant-1="Service" data-participant-2="Frontend"><polygon fill="#E7E7E7" points="293.6494,989.9531,283.6494,993.9531,293.6494,997.9531,289.6494,993.9531" style="stroke:#E7E7E7;stroke-width:1;"/><line style="stroke:#E7E7E7;stroke-width:1;stroke-dasharray:2.0,2.0;" x1="287.6494" x2="593.7656" y1="993.9531" y2="993.9531"/><text fill="#FFFFFF" font-family="sans-serif" font-size="13" lengthAdjust="spacing" textLength="43.4688" x="299.6494" y="988.8872">ZipFile</text></g><g class="message" data-participant-1="Frontend" data-participant-2="Usuario"><polygon fill="#E7E7E7" points="60.6021,1019.0859,50.6021,1023.0859,60.6021,1027.0859,56.6021,1023.0859" style="stroke:#E7E7E7;stroke-width:1;"/><line style="stroke:#E7E7E7;stroke-width:1;" x1="54.6021" x2="281.6494" y1="1023.0859" y2="1023.0859"/><text fill="#FFFFFF" font-family="sans-serif" font-size="13" lengthAdjust="spacing" textLength="165.0073" x="66.6021" y="1018.02">Descarga ZIP por defecto</text></g><!--SRC=[xPDDJiCm48NtFiM8LP7Q2rGgKWKggbY0A6pO3Swq6BcniPrAvVIC7IUD-xD0OabMiVEzv-UP2SfW7Bpw1fqomg8BIYgBTO25CtMWkYeshruzkHMvdP9q1UWXhNUoXEPEVgX0CZIEXd1-lmmlCCRP9pY_b_12QRerM-l8U-CITrXUzdqcQxpghUDIYDaCbZNZ1Yg2jMu-3Snc8fS29ZTz1M3AoJL9Hci4T5zDzaNH8updKZ1jtdcFNBPQaMVXw5gW3bsbGPjDGrWP0VnqoabvQDmUgUfQ98ZZBb98gbJ0TqqnRQi-btY-SRH1aEWi1Rwp9USvlbRVMA5Fmc7ut1eMoiO7irNVz49Rgp7GAEmjZM5jTCKUOsWurf9JHOjEnWwng2ptk6D5bhPG-Z8f3dbyw2zr7qk53jwMJqL8qztlVCnDalNfBeJAGpJWXsEHjAsc0raph_Udib6B3RvD2litPMzJp53Q5PcFe47Emn373kJ5KHa7p8bj_2zApt8QXaWvi-tiJE6EFCyAJyn97uGWxQb7wwFXFMuXnwjepGN-NGFhHkl_zlrH-muz44p-0000]--></g></svg>