<svg xmlns="http://www.w3.org/2000/svg" xmlns:xlink="http://www.w3.org/1999/xlink" contentStyleType="text/css" data-diagram-type="ACTIVITY" height="534px" preserveAspectRatio="none" style="width:769px;height:534px;background:#1B1B1B;" version="1.1" viewBox="0 0 769 534" width="769px" zoomAndPan="magnify"><defs/><g><rect fill="#1B1B1B" height="534" style="stroke:none;stroke-width:1;" width="769" x="0" y="0"/><ellipse cx="474.2771" cy="20" fill="#DDDDDD" rx="10" ry="10" style="stroke:#DDDDDD;stroke-width:1;"/><rect fill="#313139" height="33.9688" rx="12.5" ry="12.5" style="stroke:#E7E7E7;stroke-width:0.5;" width="164.4219" x="392.0662" y="50"/><text fill="#FFFFFF" font-family="sans-serif" font-size="12" lengthAdjust="spacing" textLength="144.4219" x="402.0662" y="71.1387">Usuario accede a la app</text><rect fill="#313139" height="33.9688" rx="12.5" ry="12.5" style="stroke:#E7E7E7;stroke-width:0.5;" width="208.1152" x="370.2195" y="103.9688"/><text fill="#FFFFFF" font-family="sans-serif" font-size="12" lengthAdjust="spacing" textLength="188.1152" x="380.2195" y="125.1074">Selecciona tipo de arquitectura</text><polygon fill="#313139" points="432.2617,157.9375,516.2925,157.9375,528.2925,169.9375,516.2925,181.9375,432.2617,181.9375,420.2617,169.9375,432.2617,157.9375" style="stroke:#E7E7E7;stroke-width:0.5;"/><text fill="#FFFFFF" font-family="sans-serif" font-size="11" lengthAdjust="spacing" textLength="84.0308" x="432.2617" y="173.7456">Est&#225; logueado?</text><text fill="#FFFFFF" font-family="sans-serif" font-size="11" lengthAdjust="spacing" textLength="10.0386" x="410.2231" y="167.3433">S&#237;</text><text fill="#FFFFFF" font-family="sans-serif" font-size="11" lengthAdjust="spacing" textLength="14.9585" x="528.2925" y="167.3433">No</text><rect fill="#313139" height="33.9688" rx="12.5" ry="12.5" style="stroke:#E7E7E7;stroke-width:0.5;" width="224.457" x="178.8423" y="191.9375"/><text fill="#FFFFFF" font-family="sans-serif" font-size="12" lengthAdjust="spacing" textLength="204.457" x="188.8423" y="213.0762">Consulta plantillas personalizadas</text><polygon fill="#313139" points="214.009,245.9063,368.1326,245.9063,380.1326,257.9063,368.1326,269.9063,214.009,269.9063,202.009,257.9063,214.009,245.9063" style="stroke:#E7E7E7;stroke-width:0.5;"/><text fill="#FFFFFF" font-family="sans-serif" font-size="11" lengthAdjust="spacing" textLength="154.1235" x="214.009" y="261.7144">Usa plantilla personalizada?</text><text fill="#FFFFFF" font-family="sans-serif" font-size="11" lengthAdjust="spacing" textLength="10.0386" x="191.9705" y="255.312">S&#237;</text><text fill="#FFFFFF" font-family="sans-serif" font-size="11" lengthAdjust="spacing" textLength="14.9585" x="380.1326" y="255.312">No</text><rect fill="#313139" height="33.9688" rx="12.5" ry="12.5" style="stroke:#E7E7E7;stroke-width:0.5;" width="292.5547" x="11" y="279.9063"/><text fill="#FFFFFF" font-family="sans-serif" font-size="12" lengthAdjust="spacing" textLength="272.5547" x="21" y="301.0449">Genera estructura con carpeta personalizada</text><rect fill="#313139" height="33.9688" rx="12.5" ry="12.5" style="stroke:#E7E7E7;stroke-width:0.5;" width="202.6191" x="323.5547" y="279.9063"/><text fill="#FFFFFF" font-family="sans-serif" font-size="12" lengthAdjust="spacing" textLength="182.6191" x="333.5547" y="301.0449">Genera estructura por defecto</text><polygon fill="#313139" points="291.0708,319.875,303.0708,331.875,291.0708,343.875,279.0708,331.875,291.0708,319.875" style="stroke:#E7E7E7;stroke-width:0.5;"/><rect fill="#313139" height="33.9688" rx="12.5" ry="12.5" style="stroke:#E7E7E7;stroke-width:0.5;" width="202.6191" x="556.1738" y="191.9375"/><text fill="#FFFFFF" font-family="sans-serif" font-size="12" lengthAdjust="spacing" textLength="182.6191" x="566.1738" y="213.0762">Genera estructura por defecto</text><polygon fill="#313139" points="474.2771,349.875,486.2771,361.875,474.2771,373.875,462.2771,361.875,474.2771,349.875" style="stroke:#E7E7E7;stroke-width:0.5;"/><rect fill="#313139" height="33.9688" rx="12.5" ry="12.5" style="stroke:#E7E7E7;stroke-width:0.5;" width="189.8691" x="379.3425" y="393.875"/><text fill="#FFFFFF" font-family="sans-serif" font-size="12" lengthAdjust="spacing" textLength="169.8691" x="389.3425" y="415.0137">Comprime estructura en ZIP</text><rect fill="#313139" height="33.9688" rx="12.5" ry="12.5" style="stroke:#E7E7E7;stroke-width:0.5;" width="139.3438" x="404.6052" y="447.8438"/><text fill="#FFFFFF" font-family="sans-serif" font-size="12" lengthAdjust="spacing" textLength="119.3438" x="414.6052" y="468.9824">Descarga el archivo</text><ellipse cx="474.2771" cy="512.8125" fill="none" rx="11" ry="11" style="stroke:#DDDDDD;stroke-width:1;"/><ellipse cx="474.2771" cy="512.8125" fill="#DDDDDD" rx="6" ry="6" style="stroke:#DDDDDD;stroke-width:1;"/><line style="stroke:#E7E7E7;stroke-width:1;" x1="474.2771" x2="474.2771" y1="30" y2="50"/><polygon fill="#E7E7E7" points="470.2771,40,474.2771,50,478.2771,40,474.2771,44" style="stroke:#E7E7E7;stroke-width:1;"/><line style="stroke:#E7E7E7;stroke-width:1;" x1="474.2771" x2="474.2771" y1="83.9688" y2="103.9688"/><polygon fill="#E7E7E7" points="470.2771,93.9688,474.2771,103.9688,478.2771,93.9688,474.2771,97.9688" style="stroke:#E7E7E7;stroke-width:1;"/><line style="stroke:#E7E7E7;stroke-width:1;" x1="202.009" x2="157.2773" y1="257.9063" y2="257.9063"/><line style="stroke:#E7E7E7;stroke-width:1;" x1="157.2773" x2="157.2773" y1="257.9063" y2="279.9063"/><polygon fill="#E7E7E7" points="153.2773,269.9063,157.2773,279.9063,161.2773,269.9063,157.2773,273.9063" style="stroke:#E7E7E7;stroke-width:1;"/><line style="stroke:#E7E7E7;stroke-width:1;" x1="380.1326" x2="424.8643" y1="257.9063" y2="257.9063"/><line style="stroke:#E7E7E7;stroke-width:1;" x1="424.8643" x2="424.8643" y1="257.9063" y2="279.9063"/><polygon fill="#E7E7E7" points="420.8643,269.9063,424.8643,279.9063,428.8643,269.9063,424.8643,273.9063" style="stroke:#E7E7E7;stroke-width:1;"/><line style="stroke:#E7E7E7;stroke-width:1;" x1="157.2773" x2="157.2773" y1="313.875" y2="331.875"/><line style="stroke:#E7E7E7;stroke-width:1;" x1="157.2773" x2="279.0708" y1="331.875" y2="331.875"/><polygon fill="#E7E7E7" points="269.0708,327.875,279.0708,331.875,269.0708,335.875,273.0708,331.875" style="stroke:#E7E7E7;stroke-width:1;"/><line style="stroke:#E7E7E7;stroke-width:1;" x1="424.8643" x2="424.8643" y1="313.875" y2="331.875"/><line style="stroke:#E7E7E7;stroke-width:1;" x1="424.8643" x2="303.0708" y1="331.875" y2="331.875"/><polygon fill="#E7E7E7" points="313.0708,327.875,303.0708,331.875,313.0708,335.875,309.0708,331.875" style="stroke:#E7E7E7;stroke-width:1;"/><line style="stroke:#E7E7E7;stroke-width:1;" x1="291.0708" x2="291.0708" y1="225.9063" y2="245.9063"/><polygon fill="#E7E7E7" points="287.0708,235.9063,291.0708,245.9063,295.0708,235.9063,291.0708,239.9063" style="stroke:#E7E7E7;stroke-width:1;"/><line style="stroke:#E7E7E7;stroke-width:1;" x1="420.2617" x2="291.0708" y1="169.9375" y2="169.9375"/><line style="stroke:#E7E7E7;stroke-width:1;" x1="291.0708" x2="291.0708" y1="169.9375" y2="191.9375"/><polygon fill="#E7E7E7" points="287.0708,181.9375,291.0708,191.9375,295.0708,181.9375,291.0708,185.9375" style="stroke:#E7E7E7;stroke-width:1;"/><line style="stroke:#E7E7E7;stroke-width:1;" x1="528.2925" x2="657.4834" y1="169.9375" y2="169.9375"/><line style="stroke:#E7E7E7;stroke-width:1;" x1="657.4834" x2="657.4834" y1="169.9375" y2="191.9375"/><polygon fill="#E7E7E7" points="653.4834,181.9375,657.4834,191.9375,661.4834,181.9375,657.4834,185.9375" style="stroke:#E7E7E7;stroke-width:1;"/><line style="stroke:#E7E7E7;stroke-width:1;" x1="291.0708" x2="291.0708" y1="343.875" y2="361.875"/><line style="stroke:#E7E7E7;stroke-width:1;" x1="291.0708" x2="462.2771" y1="361.875" y2="361.875"/><polygon fill="#E7E7E7" points="452.2771,357.875,462.2771,361.875,452.2771,365.875,456.2771,361.875" style="stroke:#E7E7E7;stroke-width:1;"/><line style="stroke:#E7E7E7;stroke-width:1;" x1="657.4834" x2="657.4834" y1="225.9063" y2="361.875"/><line style="stroke:#E7E7E7;stroke-width:1;" x1="657.4834" x2="486.2771" y1="361.875" y2="361.875"/><polygon fill="#E7E7E7" points="496.2771,357.875,486.2771,361.875,496.2771,365.875,492.2771,361.875" style="stroke:#E7E7E7;stroke-width:1;"/><line style="stroke:#E7E7E7;stroke-width:1;" x1="474.2771" x2="474.2771" y1="137.9375" y2="157.9375"/><polygon fill="#E7E7E7" points="470.2771,147.9375,474.2771,157.9375,478.2771,147.9375,474.2771,151.9375" style="stroke:#E7E7E7;stroke-width:1;"/><line style="stroke:#E7E7E7;stroke-width:1;" x1="474.2771" x2="474.2771" y1="373.875" y2="393.875"/><polygon fill="#E7E7E7" points="470.2771,383.875,474.2771,393.875,478.2771,383.875,474.2771,387.875" style="stroke:#E7E7E7;stroke-width:1;"/><line style="stroke:#E7E7E7;stroke-width:1;" x1="474.2771" x2="474.2771" y1="427.8438" y2="447.8438"/><polygon fill="#E7E7E7" points="470.2771,437.8438,474.2771,447.8438,478.2771,437.8438,474.2771,441.8438" style="stroke:#E7E7E7;stroke-width:1;"/><line style="stroke:#E7E7E7;stroke-width:1;" x1="474.2771" x2="474.2771" y1="481.8125" y2="501.8125"/><polygon fill="#E7E7E7" points="470.2771,491.8125,474.2771,501.8125,478.2771,491.8125,474.2771,495.8125" style="stroke:#E7E7E7;stroke-width:1;"/><!--SRC=[XP0nJWD134NxFONBpHLs2mf0Y0OXHMdIMRFUnD9aFDWUYjmc1-0KkHZUq2oH4Atzt_V_DaVrRjXPGsK1J8ac0eICWBMEtR2bJ2cn50JdAh1izQEnK_AcE7OyG_ziVhr0baCZdEHX0twa0lts-hNf08P7ATQo8zICnJbdDAYa5gQPppYXZI5RZ7Qs4ltMtBk6xmiLKWGortPB0qaA9DHAVaSl1oWRGVycVz9LDFhDqKnk-ZBntAsf_vWV8lgUglA9rhf8ldzzZuS-aKN2GqnoV38T-JD0SwdV]--></g></svg>