<svg xmlns="http://www.w3.org/2000/svg" xmlns:xlink="http://www.w3.org/1999/xlink" contentStyleType="text/css" data-diagram-type="DESCRIPTION" height="371px" preserveAspectRatio="none" style="width:475px;height:371px;background:#1B1B1B;" version="1.1" viewBox="0 0 475 371" width="475px" zoomAndPan="magnify"><defs/><g><rect fill="#1B1B1B" height="371" style="stroke:none;stroke-width:1;" width="475" x="0" y="0"/><!--cluster ArchGen App--><g class="cluster" data-entity="ArchGen App" data-source-line="5" data-uid="ent0004" id="cluster_ArchGen App"><rect fill="none" height="358" rx="2.5" ry="2.5" style="stroke:#E7E7E7;stroke-width:1;" width="286.3" x="183.34" y="7"/><text fill="#FFFFFF" font-family="sans-serif" font-size="14" font-weight="bold" lengthAdjust="spacing" textLength="102.71" x="275.135" y="21.9951">ArchGen App</text></g><!--entity Generar estructura por defecto--><g class="entity" data-entity="Generar estructura por defecto" data-source-line="6" data-uid="ent0005" id="entity_Generar estructura por defecto"><ellipse cx="326.4856" cy="67.9991" fill="#313139" rx="119.7456" ry="26.3491" style="stroke:#E7E7E7;stroke-width:0.5;"/><text fill="#FFFFFF" font-family="sans-serif" font-size="14" lengthAdjust="spacing" textLength="218.8115" x="217.0799" y="72.6476">Generar estructura por defecto</text></g><!--entity Crear plantilla personalizada--><g class="entity" data-entity="Crear plantilla personalizada" data-source-line="8" data-uid="ent0008" id="entity_Crear plantilla personalizada"><ellipse cx="326.4942" cy="323.9968" fill="#313139" rx="111.4842" ry="24.6968" style="stroke:#E7E7E7;stroke-width:0.5;"/><text fill="#FFFFFF" font-family="sans-serif" font-size="14" lengthAdjust="spacing" textLength="201.0859" x="225.9512" y="328.6453">Crear plantilla personalizada</text></g><!--entity Editar plantilla existente--><g class="entity" data-entity="Editar plantilla existente" data-source-line="9" data-uid="ent0010" id="entity_Editar plantilla existente"><ellipse cx="326.4944" cy="242.0049" fill="#313139" rx="97.9244" ry="21.9849" style="stroke:#E7E7E7;stroke-width:0.5;"/><text fill="#FFFFFF" font-family="sans-serif" font-size="14" lengthAdjust="spacing" textLength="171.4727" x="240.7581" y="246.6533">Editar plantilla existente</text></g><!--entity Descargar plantilla personalizada--><g class="entity" data-entity="Descargar plantilla personalizada" data-source-line="10" data-uid="ent0012" id="entity_Descargar plantilla personalizada"><ellipse cx="326.4895" cy="156.9999" fill="#313139" rx="127.1495" ry="27.8299" style="stroke:#E7E7E7;stroke-width:0.5;"/><text fill="#FFFFFF" font-family="sans-serif" font-size="14" lengthAdjust="spacing" textLength="234.5479" x="209.2156" y="161.6483">Descargar plantilla personalizada</text></g><!--entity Usuario--><g class="entity" data-entity="Usuario" data-source-line="2" data-uid="ent0002" id="entity_Usuario"><ellipse cx="72.6721" cy="38.35" fill="#313139" rx="8" ry="8" style="stroke:#E7E7E7;stroke-width:0.5;"/><path d="M72.6721,46.35 L72.6721,73.35 M59.6721,54.35 L85.6721,54.35 M72.6721,73.35 L59.6721,88.35 M72.6721,73.35 L85.6721,88.35" fill="none" style="stroke:#E7E7E7;stroke-width:0.5;"/><text fill="#FFFFFF" font-family="sans-serif" font-size="14" lengthAdjust="spacing" textLength="53.2041" x="46.07" y="102.8451">Usuario</text></g><!--entity Registrado--><g class="entity" data-entity="Registrado" data-source-line="3" data-uid="ent0003" id="entity_Registrado"><ellipse cx="72.6709" cy="180.35" fill="#313139" rx="8" ry="8" style="stroke:#E7E7E7;stroke-width:0.5;"/><path d="M72.6709,188.35 L72.6709,215.35 M59.6709,196.35 L85.6709,196.35 M72.6709,215.35 L59.6709,230.35 M72.6709,215.35 L85.6709,230.35" fill="none" style="stroke:#E7E7E7;stroke-width:0.5;"/><text fill="#FFFFFF" font-family="sans-serif" font-size="14" lengthAdjust="spacing" textLength="133.3418" x="6" y="244.8451">Usuario Registrado</text></g><!--link Usuario to Generar estructura por defecto--><g class="link" data-entity-1="Usuario" data-entity-2="Generar estructura por defecto" data-source-line="6" data-uid="lnk6" id="link_Usuario_Generar estructura por defecto"><path d="M99.67,68 C125.31,68 160.36,68 200.48,68" fill="none" id="Usuario-to-Generar estructura por defecto" style="stroke:#E7E7E7;stroke-width:1;"/><polygon fill="#E7E7E7" points="206.48,68,197.48,64,201.48,68,197.48,72,206.48,68" style="stroke:#E7E7E7;stroke-width:1;"/></g><!--link Registrado to Generar estructura por defecto--><g class="link" data-entity-1="Registrado" data-entity-2="Generar estructura por defecto" data-source-line="7" data-uid="lnk7" id="link_Registrado_Generar estructura por defecto"><path d="M105.47,171.37 C123.98,151.11 148.84,127.39 175.34,112 C194.49,100.88 210.9146,94.1193 232.2446,87.6993" fill="none" id="Registrado-to-Generar estructura por defecto" style="stroke:#E7E7E7;stroke-width:1;"/><polygon fill="#E7E7E7" points="237.99,85.97,228.2191,84.7336,233.2022,87.4111,230.5248,92.3942,237.99,85.97" style="stroke:#E7E7E7;stroke-width:1;"/></g><!--link Registrado to Crear plantilla personalizada--><g class="link" data-entity-1="Registrado" data-entity-2="Crear plantilla personalizada" data-source-line="8" data-uid="lnk9" id="link_Registrado_Crear plantilla personalizada"><path d="M121.82,248.49 C138.11,260.17 156.87,272.21 175.34,281 C197.5,291.55 216.9816,298.3943 240.3716,304.9343" fill="none" id="Registrado-to-Crear plantilla personalizada" style="stroke:#E7E7E7;stroke-width:1;"/><polygon fill="#E7E7E7" points="246.15,306.55,238.5596,300.2742,241.3347,305.2036,236.4053,307.9787,246.15,306.55" style="stroke:#E7E7E7;stroke-width:1;"/></g><!--link Registrado to Editar plantilla existente--><g class="link" data-entity-1="Registrado" data-entity-2="Editar plantilla existente" data-source-line="9" data-uid="lnk11" id="link_Registrado_Editar plantilla existente"><path d="M139.83,218.41 C170.58,222.31 201.5679,226.2533 234.3679,230.4233" fill="none" id="Registrado-to-Editar plantilla existente" style="stroke:#E7E7E7;stroke-width:1;"/><polygon fill="#E7E7E7" points="240.32,231.18,231.8963,226.0769,235.3599,230.5494,230.8874,234.013,240.32,231.18" style="stroke:#E7E7E7;stroke-width:1;"/></g><!--link Registrado to Descargar plantilla personalizada--><g class="link" data-entity-1="Registrado" data-entity-2="Descargar plantilla personalizada" data-source-line="10" data-uid="lnk13" id="link_Registrado_Descargar plantilla personalizada"><path d="M139.83,196.07 C168.54,190.03 196.7688,184.0965 227.8688,177.5465" fill="none" id="Registrado-to-Descargar plantilla personalizada" style="stroke:#E7E7E7;stroke-width:1;"/><polygon fill="#E7E7E7" points="233.74,176.31,224.1088,174.2507,228.8473,177.3404,225.7576,182.0789,233.74,176.31" style="stroke:#E7E7E7;stroke-width:1;"/></g><!--SRC=[dSr12W8n30NGVKyHkjB5N44OLDmB7Y2qcKwXj2NDW2ZUtIWZAWmkpEwJl9z4Wu0Ku1X60H-PdCII3Jef3ASs8SSo9pj7E5A8JHXziO3j8nhpy9X38h0zk_506VfQBLmDwBmAkcu3AzqH8mEfdPnCZ53rYwT1Eyhw2TxL_vijaugQC4jCIG5nAnbJlA37PRBtKRuCdNLFMMZvVaVD8OTVRsvt]--></g></svg>