<svg xmlns="http://www.w3.org/2000/svg" xmlns:xlink="http://www.w3.org/1999/xlink" contentStyleType="text/css" data-diagram-type="CLASS" height="565px" preserveAspectRatio="none" style="width:1702px;height:565px;background:#1B1B1B;" version="1.1" viewBox="0 0 1702 565" width="1702px" zoomAndPan="magnify"><defs/><g><rect fill="#1B1B1B" height="565" style="stroke:none;stroke-width:1;" width="1702" x="0" y="0"/><!--class User--><g class="entity" data-entity="User" data-source-line="2" data-uid="ent0002" id="entity_User"><rect fill="#313139" height="96.8906" rx="2.5" ry="2.5" style="stroke:#E7E7E7;stroke-width:0.5;" width="219.8535" x="7" y="7"/><ellipse cx="96.7217" cy="23" fill="#2E5233" rx="11" ry="11" style="stroke:#E7E7E7;stroke-width:1;"/><path d="M99.6904,28.6406 Q99.1123,28.9375 98.4717,29.0781 Q97.8311,29.2344 97.1279,29.2344 Q94.6279,29.2344 93.2998,27.5938 Q91.9873,25.9375 91.9873,22.8125 Q91.9873,19.6875 93.2998,18.0313 Q94.6279,16.375 97.1279,16.375 Q97.8311,16.375 98.4717,16.5313 Q99.1279,16.6875 99.6904,16.9844 L99.6904,19.7031 Q99.0654,19.125 98.4717,18.8594 Q97.8779,18.5781 97.2529,18.5781 Q95.9092,18.5781 95.2217,19.6563 Q94.5342,20.7188 94.5342,22.8125 Q94.5342,24.9063 95.2217,25.9844 Q95.9092,27.0469 97.2529,27.0469 Q97.8779,27.0469 98.4717,26.7813 Q99.0654,26.5 99.6904,25.9219 L99.6904,28.6406 Z " fill="#FFFFFF"/><text fill="#FFFFFF" font-family="sans-serif" font-size="14" lengthAdjust="spacing" textLength="31.9102" x="117.2217" y="27.8467">User</text><line style="stroke:#E7E7E7;stroke-width:0.5;" x1="8" x2="225.8535" y1="39" y2="39"/><rect fill="none" height="6" style="stroke:#C82930;stroke-width:1;" width="6" x="15" y="49.6484"/><text fill="#FFFFFF" font-family="sans-serif" font-size="14" lengthAdjust="spacing" textLength="63.7246" x="27" y="55.9951">id: String</text><rect fill="none" height="6" style="stroke:#C82930;stroke-width:1;" width="6" x="15" y="65.9453"/><text fill="#FFFFFF" font-family="sans-serif" font-size="14" lengthAdjust="spacing" textLength="89.5576" x="27" y="72.292">email: String</text><rect fill="none" height="6" style="stroke:#C82930;stroke-width:1;" width="6" x="15" y="82.2422"/><text fill="#FFFFFF" font-family="sans-serif" font-size="14" lengthAdjust="spacing" textLength="193.8535" x="27" y="88.5889">templates: List&lt;Template&gt;</text><line style="stroke:#E7E7E7;stroke-width:0.5;" x1="8" x2="225.8535" y1="95.8906" y2="95.8906"/></g><!--class Template--><g class="entity" data-entity="Template" data-source-line="8" data-uid="ent0003" id="entity_Template"><rect fill="#313139" height="113.1875" rx="2.5" ry="2.5" style="stroke:#E7E7E7;stroke-width:0.5;" width="212.8945" x="10.48" y="163.89"/><ellipse cx="79.5469" cy="179.89" fill="#2E5233" rx="11" ry="11" style="stroke:#E7E7E7;stroke-width:1;"/><path d="M82.5156,185.5306 Q81.9375,185.8275 81.2969,185.9681 Q80.6563,186.1244 79.9531,186.1244 Q77.4531,186.1244 76.125,184.4838 Q74.8125,182.8275 74.8125,179.7025 Q74.8125,176.5775 76.125,174.9213 Q77.4531,173.265 79.9531,173.265 Q80.6563,173.265 81.2969,173.4213 Q81.9531,173.5775 82.5156,173.8744 L82.5156,176.5931 Q81.8906,176.015 81.2969,175.7494 Q80.7031,175.4681 80.0781,175.4681 Q78.7344,175.4681 78.0469,176.5463 Q77.3594,177.6088 77.3594,179.7025 Q77.3594,181.7963 78.0469,182.8744 Q78.7344,183.9369 80.0781,183.9369 Q80.7031,183.9369 81.2969,183.6713 Q81.8906,183.39 82.5156,182.8119 L82.5156,185.5306 Z " fill="#FFFFFF"/><text fill="#FFFFFF" font-family="sans-serif" font-size="14" lengthAdjust="spacing" textLength="66.2607" x="100.0469" y="184.7367">Template</text><line style="stroke:#E7E7E7;stroke-width:0.5;" x1="11.48" x2="222.3745" y1="195.89" y2="195.89"/><rect fill="none" height="6" style="stroke:#C82930;stroke-width:1;" width="6" x="18.48" y="206.5384"/><text fill="#FFFFFF" font-family="sans-serif" font-size="14" lengthAdjust="spacing" textLength="63.7246" x="30.48" y="212.8851">id: String</text><rect fill="none" height="6" style="stroke:#C82930;stroke-width:1;" width="6" x="18.48" y="222.8353"/><text fill="#FFFFFF" font-family="sans-serif" font-size="14" lengthAdjust="spacing" textLength="90.6514" x="30.48" y="229.182">name: String</text><rect fill="none" height="6" style="stroke:#C82930;stroke-width:1;" width="6" x="18.48" y="239.1322"/><text fill="#FFFFFF" font-family="sans-serif" font-size="14" lengthAdjust="spacing" textLength="161.1025" x="30.48" y="245.4789">type: ArchitectureType</text><rect fill="none" height="6" style="stroke:#C82930;stroke-width:1;" width="6" x="18.48" y="255.4291"/><text fill="#FFFFFF" font-family="sans-serif" font-size="14" lengthAdjust="spacing" textLength="186.8945" x="30.48" y="261.7757">structure: ProjectStructure</text><line style="stroke:#E7E7E7;stroke-width:0.5;" x1="11.48" x2="222.3745" y1="269.0775" y2="269.0775"/></g><!--class ProjectStructure--><g class="entity" data-entity="ProjectStructure" data-source-line="15" data-uid="ent0004" id="entity_ProjectStructure"><rect fill="#313139" height="64.2969" rx="2.5" ry="2.5" style="stroke:#E7E7E7;stroke-width:0.5;" width="174.7979" x="29.53" y="337.08"/><ellipse cx="57.54" cy="353.08" fill="#2E5233" rx="11" ry="11" style="stroke:#E7E7E7;stroke-width:1;"/><path d="M60.5088,358.7206 Q59.9306,359.0175 59.29,359.1581 Q58.6494,359.3144 57.9463,359.3144 Q55.4463,359.3144 54.1181,357.6738 Q52.8056,356.0175 52.8056,352.8925 Q52.8056,349.7675 54.1181,348.1113 Q55.4463,346.455 57.9463,346.455 Q58.6494,346.455 59.29,346.6113 Q59.9463,346.7675 60.5088,347.0644 L60.5088,349.7831 Q59.8838,349.205 59.29,348.9394 Q58.6963,348.6581 58.0713,348.6581 Q56.7275,348.6581 56.04,349.7363 Q55.3525,350.7988 55.3525,352.8925 Q55.3525,354.9863 56.04,356.0644 Q56.7275,357.1269 58.0713,357.1269 Q58.6963,357.1269 59.29,356.8613 Q59.8838,356.58 60.5088,356.0019 L60.5088,358.7206 Z " fill="#FFFFFF"/><text fill="#FFFFFF" font-family="sans-serif" font-size="14" lengthAdjust="spacing" textLength="113.8867" x="74.4311" y="357.9267">ProjectStructure</text><line style="stroke:#E7E7E7;stroke-width:0.5;" x1="30.53" x2="203.3279" y1="369.08" y2="369.08"/><rect fill="none" height="6" style="stroke:#C82930;stroke-width:1;" width="6" x="37.53" y="379.7284"/><text fill="#FFFFFF" font-family="sans-serif" font-size="14" lengthAdjust="spacing" textLength="148.7979" x="49.53" y="386.0751">folders: List&lt;Folder&gt;</text><line style="stroke:#E7E7E7;stroke-width:0.5;" x1="30.53" x2="203.3279" y1="393.3769" y2="393.3769"/></g><!--class Folder--><g class="entity" data-entity="Folder" data-source-line="19" data-uid="ent0005" id="entity_Folder"><rect fill="#313139" height="96.8906" rx="2.5" ry="2.5" style="stroke:#E7E7E7;stroke-width:0.5;" width="202.9756" x="15.44" y="461.38"/><ellipse cx="90.796" cy="477.38" fill="#2E5233" rx="11" ry="11" style="stroke:#E7E7E7;stroke-width:1;"/><path d="M93.7647,483.0206 Q93.1866,483.3175 92.546,483.4581 Q91.9053,483.6144 91.2022,483.6144 Q88.7022,483.6144 87.3741,481.9738 Q86.0616,480.3175 86.0616,477.1925 Q86.0616,474.0675 87.3741,472.4113 Q88.7022,470.755 91.2022,470.755 Q91.9053,470.755 92.546,470.9113 Q93.2022,471.0675 93.7647,471.3644 L93.7647,474.0831 Q93.1397,473.505 92.546,473.2394 Q91.9522,472.9581 91.3272,472.9581 Q89.9835,472.9581 89.296,474.0363 Q88.6085,475.0988 88.6085,477.1925 Q88.6085,479.2863 89.296,480.3644 Q89.9835,481.4269 91.3272,481.4269 Q91.9522,481.4269 92.546,481.1613 Q93.1397,480.88 93.7647,480.3019 L93.7647,483.0206 Z " fill="#FFFFFF"/><text fill="#FFFFFF" font-family="sans-serif" font-size="14" lengthAdjust="spacing" textLength="43.7637" x="111.296" y="482.2267">Folder</text><line style="stroke:#E7E7E7;stroke-width:0.5;" x1="16.44" x2="217.4156" y1="493.38" y2="493.38"/><rect fill="none" height="6" style="stroke:#C82930;stroke-width:1;" width="6" x="23.44" y="504.0284"/><text fill="#FFFFFF" font-family="sans-serif" font-size="14" lengthAdjust="spacing" textLength="90.6514" x="35.44" y="510.3751">name: String</text><rect fill="none" height="6" style="stroke:#C82930;stroke-width:1;" width="6" x="23.44" y="520.3253"/><text fill="#FFFFFF" font-family="sans-serif" font-size="14" lengthAdjust="spacing" textLength="176.9756" x="35.44" y="526.672">subFolders: List&lt;Folder&gt;</text><rect fill="none" height="6" style="stroke:#C82930;stroke-width:1;" width="6" x="23.44" y="536.6222"/><text fill="#FFFFFF" font-family="sans-serif" font-size="14" lengthAdjust="spacing" textLength="128.7891" x="35.44" y="542.9689">description: String</text><line style="stroke:#E7E7E7;stroke-width:0.5;" x1="16.44" x2="217.4156" y1="550.2706" y2="550.2706"/></g><!--class ArchitectureType--><g class="entity" data-entity="ArchitectureType" data-source-line="25" data-uid="ent0006" id="entity_ArchitectureType"><rect fill="#313139" height="96.8906" rx="2.5" ry="2.5" style="stroke:#E7E7E7;stroke-width:0.5;" width="152.6611" x="599.6" y="7"/><ellipse cx="614.6" cy="23" fill="#852D19" rx="11" ry="11" style="stroke:#E7E7E7;stroke-width:1;"/><path d="M618.7094,29 L610.9906,29 L610.9906,16.6094 L618.7094,16.6094 L618.7094,18.7656 L613.4438,18.7656 L613.4438,21.4375 L618.2094,21.4375 L618.2094,23.5938 L613.4438,23.5938 L613.4438,26.8438 L618.7094,26.8438 L618.7094,29 Z " fill="#FFFFFF"/><text fill="#FFFFFF" font-family="sans-serif" font-size="14" lengthAdjust="spacing" textLength="120.6611" x="628.6" y="27.8467">ArchitectureType</text><line style="stroke:#E7E7E7;stroke-width:0.5;" x1="600.6" x2="751.2611" y1="39" y2="39"/><text fill="#FFFFFF" font-family="sans-serif" font-size="14" lengthAdjust="spacing" textLength="88.2588" x="605.6" y="55.9951">HEXAGONAL</text><text fill="#FFFFFF" font-family="sans-serif" font-size="14" lengthAdjust="spacing" textLength="64.1279" x="605.6" y="72.292">LAYERED</text><text fill="#FFFFFF" font-family="sans-serif" font-size="14" lengthAdjust="spacing" textLength="46.4707" x="605.6" y="88.5889">CLEAN</text><line style="stroke:#E7E7E7;stroke-width:0.5;" x1="600.6" x2="751.2611" y1="95.8906" y2="95.8906"/></g><!--class ArchitectureService--><g class="entity" data-entity="ArchitectureService" data-source-line="32" data-uid="ent0007" id="entity_ArchitectureService"><rect fill="#313139" height="80.5938" rx="2.5" ry="2.5" style="stroke:#E7E7E7;stroke-width:0.5;" width="487.0908" x="818.38" y="15.15"/><ellipse cx="988.6427" cy="31.15" fill="#2E5233" rx="11" ry="11" style="stroke:#E7E7E7;stroke-width:1;"/><path d="M991.6114,36.7906 Q991.0333,37.0875 990.3927,37.2281 Q989.7521,37.3844 989.0489,37.3844 Q986.5489,37.3844 985.2208,35.7437 Q983.9083,34.0875 983.9083,30.9625 Q983.9083,27.8375 985.2208,26.1812 Q986.5489,24.525 989.0489,24.525 Q989.7521,24.525 990.3927,24.6812 Q991.0489,24.8375 991.6114,25.1344 L991.6114,27.8531 Q990.9864,27.275 990.3927,27.0094 Q989.7989,26.7281 989.1739,26.7281 Q987.8302,26.7281 987.1427,27.8062 Q986.4552,28.8687 986.4552,30.9625 Q986.4552,33.0562 987.1427,34.1344 Q987.8302,35.1969 989.1739,35.1969 Q989.7989,35.1969 990.3927,34.9312 Q990.9864,34.65 991.6114,34.0719 L991.6114,36.7906 Z " fill="#FFFFFF"/><text fill="#FFFFFF" font-family="sans-serif" font-size="14" lengthAdjust="spacing" textLength="138.0654" x="1009.1427" y="35.9967">ArchitectureService</text><line style="stroke:#E7E7E7;stroke-width:0.5;" x1="819.38" x2="1304.4708" y1="47.15" y2="47.15"/><line style="stroke:#E7E7E7;stroke-width:0.5;" x1="819.38" x2="1304.4708" y1="55.15" y2="55.15"/><ellipse cx="829.38" cy="68.7984" fill="#84BE84" rx="3" ry="3" style="stroke:#038048;stroke-width:1;"/><text fill="#FFFFFF" font-family="sans-serif" font-size="14" lengthAdjust="spacing" textLength="461.0908" x="838.38" y="72.1451">generateTemplate(type: ArchitectureType, userId: String): ZipFile</text><ellipse cx="829.38" cy="85.0953" fill="#84BE84" rx="3" ry="3" style="stroke:#038048;stroke-width:1;"/><text fill="#FFFFFF" font-family="sans-serif" font-size="14" lengthAdjust="spacing" textLength="341.0107" x="838.38" y="88.442">saveCustomTemplate(template: Template): void</text></g><!--class ArchitectureFactory--><g class="entity" data-entity="ArchitectureFactory" data-source-line="38" data-uid="ent0008" id="entity_ArchitectureFactory"><rect fill="#313139" height="64.2969" rx="2.5" ry="2.5" style="stroke:#E7E7E7;stroke-width:0.5;" width="288.835" x="410.51" y="188.34"/><ellipse cx="481.303" cy="204.34" fill="#352866" rx="11" ry="11" style="stroke:#E7E7E7;stroke-width:1;"/><path d="M477.2248,200.1056 L477.2248,197.9494 L484.6155,197.9494 L484.6155,200.1056 L482.1467,200.1056 L482.1467,208.1837 L484.6155,208.1837 L484.6155,210.34 L477.2248,210.34 L477.2248,208.1837 L479.6936,208.1837 L479.6936,200.1056 L477.2248,200.1056 Z " fill="#FFFFFF"/><text fill="#FFFFFF" font-family="sans-serif" font-size="14" font-style="italic" lengthAdjust="spacing" textLength="138.749" x="501.803" y="209.1867">ArchitectureFactory</text><line style="stroke:#E7E7E7;stroke-width:0.5;" x1="411.51" x2="698.345" y1="220.34" y2="220.34"/><line style="stroke:#E7E7E7;stroke-width:0.5;" x1="411.51" x2="698.345" y1="228.34" y2="228.34"/><ellipse cx="421.51" cy="241.9884" fill="#84BE84" rx="3" ry="3" style="stroke:#038048;stroke-width:1;"/><text fill="#FFFFFF" font-family="sans-serif" font-size="14" lengthAdjust="spacing" textLength="262.835" x="430.51" y="245.3351">generateStructure(): ProjectStructure</text></g><!--class HexagonalFactory--><g class="entity" data-entity="HexagonalFactory" data-source-line="42" data-uid="ent0009" id="entity_HexagonalFactory"><rect fill="#313139" height="64.2969" rx="2.5" ry="2.5" style="stroke:#E7E7E7;stroke-width:0.5;" width="288.835" x="324.51" y="337.08"/><ellipse cx="401.0657" cy="353.08" fill="#2E5233" rx="11" ry="11" style="stroke:#E7E7E7;stroke-width:1;"/><path d="M404.0344,358.7206 Q403.4563,359.0175 402.8157,359.1581 Q402.175,359.3144 401.4719,359.3144 Q398.9719,359.3144 397.6438,357.6738 Q396.3313,356.0175 396.3313,352.8925 Q396.3313,349.7675 397.6438,348.1113 Q398.9719,346.455 401.4719,346.455 Q402.175,346.455 402.8157,346.6113 Q403.4719,346.7675 404.0344,347.0644 L404.0344,349.7831 Q403.4094,349.205 402.8157,348.9394 Q402.2219,348.6581 401.5969,348.6581 Q400.2532,348.6581 399.5657,349.7363 Q398.8782,350.7988 398.8782,352.8925 Q398.8782,354.9863 399.5657,356.0644 Q400.2532,357.1269 401.5969,357.1269 Q402.2219,357.1269 402.8157,356.8613 Q403.4094,356.58 404.0344,356.0019 L404.0344,358.7206 Z " fill="#FFFFFF"/><text fill="#FFFFFF" font-family="sans-serif" font-size="14" lengthAdjust="spacing" textLength="127.2236" x="421.5657" y="357.9267">HexagonalFactory</text><line style="stroke:#E7E7E7;stroke-width:0.5;" x1="325.51" x2="612.345" y1="369.08" y2="369.08"/><line style="stroke:#E7E7E7;stroke-width:0.5;" x1="325.51" x2="612.345" y1="377.08" y2="377.08"/><ellipse cx="335.51" cy="390.7284" fill="#84BE84" rx="3" ry="3" style="stroke:#038048;stroke-width:1;"/><text fill="#FFFFFF" font-family="sans-serif" font-size="14" lengthAdjust="spacing" textLength="262.835" x="344.51" y="394.0751">generateStructure(): ProjectStructure</text></g><!--class LayeredFactory--><g class="entity" data-entity="LayeredFactory" data-source-line="46" data-uid="ent0011" id="entity_LayeredFactory"><rect fill="#313139" height="64.2969" rx="2.5" ry="2.5" style="stroke:#E7E7E7;stroke-width:0.5;" width="288.835" x="648.51" y="337.08"/><ellipse cx="734.1985" cy="353.08" fill="#2E5233" rx="11" ry="11" style="stroke:#E7E7E7;stroke-width:1;"/><path d="M737.1672,358.7206 Q736.5891,359.0175 735.9485,359.1581 Q735.3079,359.3144 734.6047,359.3144 Q732.1047,359.3144 730.7766,357.6738 Q729.4641,356.0175 729.4641,352.8925 Q729.4641,349.7675 730.7766,348.1113 Q732.1047,346.455 734.6047,346.455 Q735.3079,346.455 735.9485,346.6113 Q736.6047,346.7675 737.1672,347.0644 L737.1672,349.7831 Q736.5422,349.205 735.9485,348.9394 Q735.3547,348.6581 734.7297,348.6581 Q733.386,348.6581 732.6985,349.7363 Q732.011,350.7988 732.011,352.8925 Q732.011,354.9863 732.6985,356.0644 Q733.386,357.1269 734.7297,357.1269 Q735.3547,357.1269 735.9485,356.8613 Q736.5422,356.58 737.1672,356.0019 L737.1672,358.7206 Z " fill="#FFFFFF"/><text fill="#FFFFFF" font-family="sans-serif" font-size="14" lengthAdjust="spacing" textLength="108.958" x="754.6985" y="357.9267">LayeredFactory</text><line style="stroke:#E7E7E7;stroke-width:0.5;" x1="649.51" x2="936.345" y1="369.08" y2="369.08"/><line style="stroke:#E7E7E7;stroke-width:0.5;" x1="649.51" x2="936.345" y1="377.08" y2="377.08"/><ellipse cx="659.51" cy="390.7284" fill="#84BE84" rx="3" ry="3" style="stroke:#038048;stroke-width:1;"/><text fill="#FFFFFF" font-family="sans-serif" font-size="14" lengthAdjust="spacing" textLength="262.835" x="668.51" y="394.0751">generateStructure(): ProjectStructure</text></g><!--class FileCompressor--><g class="entity" data-entity="FileCompressor" data-source-line="51" data-uid="ent0013" id="entity_FileCompressor"><rect fill="#313139" height="64.2969" rx="2.5" ry="2.5" style="stroke:#E7E7E7;stroke-width:0.5;" width="347.542" x="734.16" y="188.34"/><ellipse cx="849.3866" cy="204.34" fill="#2E5233" rx="11" ry="11" style="stroke:#E7E7E7;stroke-width:1;"/><path d="M852.3553,209.9806 Q851.7772,210.2775 851.1366,210.4181 Q850.4959,210.5744 849.7928,210.5744 Q847.2928,210.5744 845.9647,208.9337 Q844.6522,207.2775 844.6522,204.1525 Q844.6522,201.0275 845.9647,199.3712 Q847.2928,197.715 849.7928,197.715 Q850.4959,197.715 851.1366,197.8712 Q851.7928,198.0275 852.3553,198.3244 L852.3553,201.0431 Q851.7303,200.465 851.1366,200.1994 Q850.5428,199.9181 849.9178,199.9181 Q848.5741,199.9181 847.8866,200.9962 Q847.1991,202.0587 847.1991,204.1525 Q847.1991,206.2462 847.8866,207.3244 Q848.5741,208.3869 849.9178,208.3869 Q850.5428,208.3869 851.1366,208.1212 Q851.7303,207.84 852.3553,207.2619 L852.3553,209.9806 Z " fill="#FFFFFF"/><text fill="#FFFFFF" font-family="sans-serif" font-size="14" lengthAdjust="spacing" textLength="108.5889" x="869.8866" y="209.1867">FileCompressor</text><line style="stroke:#E7E7E7;stroke-width:0.5;" x1="735.16" x2="1080.702" y1="220.34" y2="220.34"/><line style="stroke:#E7E7E7;stroke-width:0.5;" x1="735.16" x2="1080.702" y1="228.34" y2="228.34"/><ellipse cx="745.16" cy="241.9884" fill="#84BE84" rx="3" ry="3" style="stroke:#038048;stroke-width:1;"/><text fill="#FFFFFF" font-family="sans-serif" font-size="14" lengthAdjust="spacing" textLength="321.542" x="754.16" y="245.3351">compress(structure: ProjectStructure): ZipFile</text></g><!--class UserRepository--><g class="entity" data-entity="UserRepository" data-source-line="55" data-uid="ent0014" id="entity_UserRepository"><rect fill="#313139" height="80.5938" rx="2.5" ry="2.5" style="stroke:#E7E7E7;stroke-width:0.5;" width="199.209" x="1116.32" y="180.19"/><ellipse cx="1158.422" cy="196.19" fill="#2E5233" rx="11" ry="11" style="stroke:#E7E7E7;stroke-width:1;"/><path d="M1161.3907,201.8306 Q1160.8126,202.1275 1160.172,202.2681 Q1159.5313,202.4244 1158.8282,202.4244 Q1156.3282,202.4244 1155.0001,200.7838 Q1153.6876,199.1275 1153.6876,196.0025 Q1153.6876,192.8775 1155.0001,191.2213 Q1156.3282,189.565 1158.8282,189.565 Q1159.5313,189.565 1160.172,189.7213 Q1160.8282,189.8775 1161.3907,190.1744 L1161.3907,192.8931 Q1160.7657,192.315 1160.172,192.0494 Q1159.5782,191.7681 1158.9532,191.7681 Q1157.6095,191.7681 1156.922,192.8463 Q1156.2345,193.9088 1156.2345,196.0025 Q1156.2345,198.0963 1156.922,199.1744 Q1157.6095,200.2369 1158.9532,200.2369 Q1159.5782,200.2369 1160.172,199.9713 Q1160.7657,199.69 1161.3907,199.1119 L1161.3907,201.8306 Z " fill="#FFFFFF"/><text fill="#FFFFFF" font-family="sans-serif" font-size="14" lengthAdjust="spacing" textLength="106.9824" x="1178.4446" y="201.0367">UserRepository</text><line style="stroke:#E7E7E7;stroke-width:0.5;" x1="1117.32" x2="1314.529" y1="212.19" y2="212.19"/><line style="stroke:#E7E7E7;stroke-width:0.5;" x1="1117.32" x2="1314.529" y1="220.19" y2="220.19"/><ellipse cx="1127.32" cy="233.8384" fill="#84BE84" rx="3" ry="3" style="stroke:#038048;stroke-width:1;"/><text fill="#FFFFFF" font-family="sans-serif" font-size="14" lengthAdjust="spacing" textLength="173.209" x="1136.32" y="237.1851">findById(id: String): User</text><ellipse cx="1127.32" cy="250.1353" fill="#84BE84" rx="3" ry="3" style="stroke:#038048;stroke-width:1;"/><text fill="#FFFFFF" font-family="sans-serif" font-size="14" lengthAdjust="spacing" textLength="154.1025" x="1136.32" y="253.482">save(user: User): void</text></g><!--class TemplateRepository--><g class="entity" data-entity="TemplateRepository" data-source-line="60" data-uid="ent0015" id="entity_TemplateRepository"><rect fill="#313139" height="80.5938" rx="2.5" ry="2.5" style="stroke:#E7E7E7;stroke-width:0.5;" width="344.1787" x="1350.84" y="180.19"/><ellipse cx="1448.0129" cy="196.19" fill="#2E5233" rx="11" ry="11" style="stroke:#E7E7E7;stroke-width:1;"/><path d="M1450.9816,201.8306 Q1450.4035,202.1275 1449.7629,202.2681 Q1449.1222,202.4244 1448.4191,202.4244 Q1445.9191,202.4244 1444.591,200.7838 Q1443.2785,199.1275 1443.2785,196.0025 Q1443.2785,192.8775 1444.591,191.2213 Q1445.9191,189.565 1448.4191,189.565 Q1449.1222,189.565 1449.7629,189.7213 Q1450.4191,189.8775 1450.9816,190.1744 L1450.9816,192.8931 Q1450.3566,192.315 1449.7629,192.0494 Q1449.1691,191.7681 1448.5441,191.7681 Q1447.2004,191.7681 1446.5129,192.8463 Q1445.8254,193.9088 1445.8254,196.0025 Q1445.8254,198.0963 1446.5129,199.1744 Q1447.2004,200.2369 1448.5441,200.2369 Q1449.1691,200.2369 1449.7629,199.9713 Q1450.3566,199.69 1450.9816,199.1119 L1450.9816,201.8306 Z " fill="#FFFFFF"/><text fill="#FFFFFF" font-family="sans-serif" font-size="14" lengthAdjust="spacing" textLength="141.333" x="1468.5129" y="201.0367">TemplateRepository</text><line style="stroke:#E7E7E7;stroke-width:0.5;" x1="1351.84" x2="1694.0187" y1="212.19" y2="212.19"/><line style="stroke:#E7E7E7;stroke-width:0.5;" x1="1351.84" x2="1694.0187" y1="220.19" y2="220.19"/><ellipse cx="1361.84" cy="233.8384" fill="#84BE84" rx="3" ry="3" style="stroke:#038048;stroke-width:1;"/><text fill="#FFFFFF" font-family="sans-serif" font-size="14" lengthAdjust="spacing" textLength="221.1152" x="1370.84" y="237.1851">save(template: Template): void</text><ellipse cx="1361.84" cy="250.1353" fill="#84BE84" rx="3" ry="3" style="stroke:#038048;stroke-width:1;"/><text fill="#FFFFFF" font-family="sans-serif" font-size="14" lengthAdjust="spacing" textLength="318.1787" x="1370.84" y="253.482">findByUserId(userId: String): List&lt;Template&gt;</text></g><!--reverse link ArchitectureFactory to HexagonalFactory--><g class="link" data-entity-1="ArchitectureFactory" data-entity-2="HexagonalFactory" data-source-line="43" data-uid="lnk10" id="link_ArchitectureFactory_HexagonalFactory"><path d="M515.4965,267.7363 C498.2365,292.4963 488.41,312.06 476.67,336.8" fill="none" id="ArchitectureFactory-backto-HexagonalFactory" style="stroke:#E7E7E7;stroke-width:1;stroke-dasharray:7.0,7.0;"/><polygon fill="none" points="525.79,252.97,510.5744,264.3052,520.4186,271.1675,525.79,252.97" style="stroke:#E7E7E7;stroke-width:1;"/></g><!--link HexagonalFactory to ArchitectureFactory--><g class="link" data-entity-1="HexagonalFactory" data-entity-2="ArchitectureFactory" data-source-line="75" data-uid="lnk24" id="link_HexagonalFactory_ArchitectureFactory"><path codeLine="75" d="M498.65,336.8 C516.08,312.06 528.569,294.0324 540.159,269.2724" fill="none" id="HexagonalFactory-to-ArchitectureFactory" style="stroke:#E7E7E7;stroke-width:1;stroke-dasharray:7.0,7.0;"/><polygon fill="none" points="547.79,252.97,534.7248,266.7287,545.5931,271.816,547.79,252.97" style="stroke:#E7E7E7;stroke-width:1;"/></g><!--reverse link ArchitectureFactory to LayeredFactory--><g class="link" data-entity-1="ArchitectureFactory" data-entity-2="LayeredFactory" data-source-line="47" data-uid="lnk12" id="link_ArchitectureFactory_LayeredFactory"><path d="M610.3089,262.9064 C647.7089,287.6664 688.38,312.06 731.27,336.8" fill="none" id="ArchitectureFactory-backto-LayeredFactory" style="stroke:#E7E7E7;stroke-width:1;stroke-dasharray:7.0,7.0;"/><polygon fill="none" points="595.3,252.97,606.9968,267.9094,613.6211,257.9034,595.3,252.97" style="stroke:#E7E7E7;stroke-width:1;"/></g><!--link LayeredFactory to ArchitectureFactory--><g class="link" data-entity-1="LayeredFactory" data-entity-2="ArchitectureFactory" data-source-line="76" data-uid="lnk25" id="link_LayeredFactory_ArchitectureFactory"><path codeLine="76" d="M753.26,336.8 C716.05,312.06 675.9751,286.7011 632.9051,261.9411" fill="none" id="LayeredFactory-to-ArchitectureFactory" style="stroke:#E7E7E7;stroke-width:1;stroke-dasharray:7.0,7.0;"/><polygon fill="none" points="617.3,252.97,629.9148,267.1428,635.8955,256.7393,617.3,252.97" style="stroke:#E7E7E7;stroke-width:1;"/></g><!--reverse link User to Template--><g class="link" data-entity-1="User" data-entity-2="Template" data-source-line="66" data-uid="lnk16" id="link_User_Template"><path codeLine="66" d="M116.93,116.05 C116.93,134.66 116.93,144.14 116.93,163.49" fill="none" id="User-backto-Template" style="stroke:#E7E7E7;stroke-width:1;"/><polygon fill="none" points="116.93,104.05,112.93,110.05,116.93,116.05,120.93,110.05,116.93,104.05" style="stroke:#E7E7E7;stroke-width:1;"/><text fill="#FFFFFF" font-family="sans-serif" font-size="13" lengthAdjust="spacing" textLength="8.271" x="108.387" y="124.016">1</text><text fill="#FFFFFF" font-family="sans-serif" font-size="13" lengthAdjust="spacing" textLength="36.5625" x="78.7709" y="152.7048">many</text></g><!--reverse link Template to ProjectStructure--><g class="link" data-entity-1="Template" data-entity-2="ProjectStructure" data-source-line="67" data-uid="lnk17" id="link_Template_ProjectStructure"><path codeLine="67" d="M116.93,289.38 C116.93,309.47 116.93,319.41 116.93,336.7" fill="none" id="Template-backto-ProjectStructure" style="stroke:#E7E7E7;stroke-width:1;"/><polygon fill="none" points="116.93,277.38,112.93,283.38,116.93,289.38,120.93,283.38,116.93,277.38" style="stroke:#E7E7E7;stroke-width:1;"/><text fill="#FFFFFF" font-family="sans-serif" font-size="13" lengthAdjust="spacing" textLength="8.271" x="108.4593" y="297.3033">1</text><text fill="#FFFFFF" font-family="sans-serif" font-size="13" lengthAdjust="spacing" textLength="8.271" x="108.1694" y="325.8994">1</text></g><!--reverse link ProjectStructure to Folder--><g class="link" data-entity-1="ProjectStructure" data-entity-2="Folder" data-source-line="68" data-uid="lnk18" id="link_ProjectStructure_Folder"><path codeLine="68" d="M116.93,413.68 C116.93,431.17 116.93,441.3 116.93,460.9" fill="none" id="ProjectStructure-backto-Folder" style="stroke:#E7E7E7;stroke-width:1;"/><polygon fill="none" points="116.93,401.68,112.93,407.68,116.93,413.68,120.93,407.68,116.93,401.68" style="stroke:#E7E7E7;stroke-width:1;"/><text fill="#FFFFFF" font-family="sans-serif" font-size="13" lengthAdjust="spacing" textLength="8.271" x="108.1935" y="421.3753">1</text><text fill="#FFFFFF" font-family="sans-serif" font-size="13" lengthAdjust="spacing" textLength="6.5" x="110.5608" y="450.3937">*</text></g><!--reverse link Folder to Folder--><g class="link" data-entity-1="Folder" data-entity-2="Folder" data-source-line="69" data-uid="lnk19" id="link_Folder_Folder"><path codeLine="69" d="M230.593,486.2216 C250.853,489.0716 253.41,495.82 253.41,509.82 C253.41,523.83 238.97,532.25 218.71,535.1" fill="none" id="Folder-backto-Folder" style="stroke:#E7E7E7;stroke-width:1;"/><polygon fill="none" points="218.71,484.55,224.0943,489.3468,230.593,486.2216,225.2087,481.4248,218.71,484.55" style="stroke:#E7E7E7;stroke-width:1;"/><text fill="#FFFFFF" font-family="sans-serif" font-size="13" lengthAdjust="spacing" textLength="23.0356" x="226.3223" y="479.4193">0..*</text><text fill="#FFFFFF" font-family="sans-serif" font-size="13" lengthAdjust="spacing" textLength="23.0356" x="226.3223" y="533.3656">0..*</text></g><!--link ArchitectureService to ArchitectureFactory--><g class="link" data-entity-1="ArchitectureService" data-entity-2="ArchitectureFactory" data-source-line="71" data-uid="lnk20" id="link_ArchitectureService_ArchitectureFactory"><path codeLine="71" d="M931.4,96.13 C866.75,116.04 787.58,140.78 716.93,163.89 C693.75,171.48 674.4763,177.9657 651.2663,185.9157" fill="none" id="ArchitectureService-to-ArchitectureFactory" style="stroke:#E7E7E7;stroke-width:1;"/><polygon fill="#E7E7E7" points="645.59,187.86,655.4006,188.7278,650.3202,186.2398,652.8082,181.1594,645.59,187.86" style="stroke:#E7E7E7;stroke-width:1;"/></g><!--link ArchitectureService to FileCompressor--><g class="link" data-entity-1="ArchitectureService" data-entity-2="FileCompressor" data-source-line="72" data-uid="lnk21" id="link_ArchitectureService_FileCompressor"><path codeLine="72" d="M1024.65,95.92 C997.94,124.19 966.5805,157.3987 941.7705,183.6587" fill="none" id="ArchitectureService-to-FileCompressor" style="stroke:#E7E7E7;stroke-width:1;"/><polygon fill="#E7E7E7" points="937.65,188.02,946.7383,184.225,941.0838,184.3855,940.9232,178.731,937.65,188.02" style="stroke:#E7E7E7;stroke-width:1;"/></g><!--link ArchitectureService to TemplateRepository--><g class="link" data-entity-1="ArchitectureService" data-entity-2="TemplateRepository" data-source-line="73" data-uid="lnk22" id="link_ArchitectureService_TemplateRepository"><path codeLine="73" d="M1174.41,96.23 C1246.24,121.63 1333.3535,152.4389 1405.1235,177.8289" fill="none" id="ArchitectureService-to-TemplateRepository" style="stroke:#E7E7E7;stroke-width:1;"/><polygon fill="#E7E7E7" points="1410.78,179.83,1403.6293,173.0574,1406.0663,178.1624,1400.9612,180.5994,1410.78,179.83" style="stroke:#E7E7E7;stroke-width:1;"/></g><!--link ArchitectureService to UserRepository--><g class="link" data-entity-1="ArchitectureService" data-entity-2="UserRepository" data-source-line="74" data-uid="lnk23" id="link_ArchitectureService_UserRepository"><path codeLine="74" d="M1099.21,95.92 C1123.24,121.36 1150.2706,149.9676 1174.3406,175.4576" fill="none" id="ArchitectureService-to-UserRepository" style="stroke:#E7E7E7;stroke-width:1;"/><polygon fill="#E7E7E7" points="1178.46,179.82,1175.1892,170.5301,1175.0272,176.1847,1169.3726,176.0226,1178.46,179.82" style="stroke:#E7E7E7;stroke-width:1;"/></g><!--SRC=[jLHDRvmm4BtpAomkIvAoIgweYaGtkyrAAArs4odfpONPZIkmBTkiYjh-znfZl113Jkq9UpxUFERDU87kM8K9HHbkG0HvYQL4Jn84-XKW52DI96Yl1A57SmKTMuui2YfUOWKoGHcHwkEZlTy6Vm8Brvkc8IckO8pOS6r8HVvA5EIg5l2eBSObbQYD9K5V1VkXlVlUSYxtrcFB7bXPWEXfRinjGB8ps5YFawo_RoRpMsS1CXU4AyAeIzAuGElA-mrJu7xzd7x-yf1c-fobB-lT-awVLjawVMWJ5oZbl2GvRX57mWpHzY1E9Ey0hz0HA0ZTuxxNqNGNFw1QQxjr2bmaw1lX6rA2GP7u1AjQAbQTSUmXSJBgd1CZHSTqWtF5H6DP4gf07B1cDIpSnuoPEdsYY_VKl8UV-CWeBdiKebb01LJ9VrV4i8VY_vHOe2qz2EncTwHes_eLgxW0APcmqBarHE_C-q0vznljtkw0Cqa6F0-45f-QRH6HeUfjg9CyQeUYimt47I-lXsiIvwVZNFh9J5pa3Px_N2pG3aepzVALS1cOToYy2H6BOnHMc3QXgnEuLyK5wA_NV-ynSD6NeTtvmAv-UBrSNbfdTxJ-O6hjulXsQZXcOyT2puRvxPuD7QiTU8koNFwUflXcskVY_W80]--></g></svg>